<?xml version="1.0" encoding="UTF-8"?>
<svg xmlns="http://www.w3.org/2000/svg" version="1.1" viewBox="0 0 212 106">
  <defs>
    <style>
      .cls-1 {
        fill: #39b54a;
      }

      .cls-2 {
        fill: #0071bc;
      }

      .cls-3 {
        fill: #141414;
      }

      .cls-4 {
        fill: #fff;
      }

      .cls-5 {
        fill: #c1272d;
      }

      .cls-6 {
        fill: #fcee21;
      }
    </style>
  </defs>
  <!-- Generator: Adobe Illustrator 28.6.0, SVG Export Plug-In . SVG Version: 1.2.0 Build 709)  -->
  <g>
    <g id="Layer_1">
      <g id="A-Unpressed">
        <path class="cls-3" d="M26.5,0c14.6,0,26.5,11.9,26.5,26.5s-11.9,26.5-26.5,26.5S0,41.1,0,26.5,11.9,0,26.5,0Z"/>
        <path class="cls-1" d="M35.3,41.7l-2.8-7.7h-12.1l-2.6,7.7h-5.5l11.5-30.3h5.6l11.5,30.3h-5.5ZM26.5,15.9h-.1c-.1.8-.2,1.6-.5,2.2l-4.1,11.7h9.3l-4.2-11.7c-.1-.4-.3-1.1-.4-2.2Z"/>
      </g>
      <g id="B-Unpressed">
        <path class="cls-3" d="M79.5,0C94.1,0,106,11.9,106,26.5s-11.9,26.5-26.5,26.5-26.5-11.9-26.5-26.5S64.9,0,79.5,0Z"/>
        <path class="cls-5" d="M89.7,32.8c0,2.6-1,4.8-2.9,6.4-2,1.6-4.5,2.4-7.6,2.4h-9.9V11.4h9.6c2.9,0,5.2.6,6.9,1.9,1.7,1.3,2.5,3,2.5,5.1s-.5,3.1-1.5,4.3c-1,1.3-2.3,2.1-4,2.7h0c2.2.4,3.8,1.2,5.1,2.5,1.2,1.3,1.8,3,1.8,5ZM82.9,19.3c0-1.2-.5-2.1-1.3-2.8-.9-.6-2.2-1-4-1h-3.3v8.4h3.2c1.7,0,3-.4,4-1.2.9-.8,1.4-1.9,1.4-3.4ZM84.4,32.7c0-1.4-.5-2.6-1.6-3.4-1.1-.8-2.6-1.2-4.7-1.2h-3.8v9.4h4.2c1.8,0,3.2-.4,4.2-1.3,1-.9,1.5-2,1.5-3.5Z"/>
      </g>
      <g id="Y-Unpressed">
        <path class="cls-3" d="M185.5,0c14.7,0,26.5,11.9,26.5,26.5s-11.9,26.5-26.5,26.5-26.5-11.9-26.5-26.5S170.9,0,185.5,0Z"/>
        <path class="cls-6" d="M187.9,30.7v11h-5v-10.9l-9.8-19.4h5.7l6.1,12.6c.2.4.3.8.4,1.1.1.3.2.6.3.8h0c.2-.7.4-1.3.7-1.9l6.3-12.7h5.3l-10,19.3h0Z"/>
      </g>
      <g id="X-Unpressed">
        <path class="cls-3" d="M132.5,0c14.7,0,26.5,11.9,26.5,26.5s-11.9,26.5-26.5,26.5-26.5-11.9-26.5-26.5S117.9,0,132.5,0Z"/>
        <path class="cls-2" d="M139.6,41.7l-6.4-11c-.1-.2-.2-.5-.3-.8,0-.3-.1-.5-.2-.8h0c-.1.3-.2.5-.3.8,0,.3-.2.5-.3.8l-6.5,11h-6.1l10.1-15.2-9.3-15.1h6.2l5.4,10c.5.9.9,1.6,1,2.3h0c.3-.8.5-1.3.7-1.6.1-.2,2.2-3.8,6.3-10.7h5.7l-9.5,15,9.6,15.3h-6,0Z"/>
      </g>
      <g id="A-Pressed">
        <path class="cls-4" d="M26.5,53c14.6,0,26.5,11.9,26.5,26.5s-11.9,26.5-26.5,26.5S0,94.1,0,79.5s11.9-26.5,26.5-26.5Z"/>
        <path class="cls-1" d="M35.3,94.7l-2.8-7.7h-12.1l-2.6,7.7h-5.5l11.5-30.3h5.6l11.5,30.3h-5.5ZM26.5,68.9h-.1c-.1.8-.2,1.6-.5,2.2l-4.1,11.7h9.3l-4.2-11.7c-.1-.4-.3-1.1-.4-2.2Z"/>
      </g>
      <g id="B-Pressed">
        <path class="cls-4" d="M79.5,53c14.6,0,26.5,11.9,26.5,26.5s-11.9,26.5-26.5,26.5-26.5-11.9-26.5-26.5,11.9-26.5,26.5-26.5Z"/>
        <path class="cls-5" d="M89.7,85.8c0,2.6-1,4.8-2.9,6.4-2,1.6-4.5,2.4-7.6,2.4h-9.9v-30.3h9.6c2.9,0,5.2.6,6.9,1.9,1.7,1.3,2.5,3,2.5,5.1s-.5,3.1-1.5,4.3c-1,1.3-2.3,2.1-4,2.7h0c2.2.4,3.8,1.2,5.1,2.5,1.2,1.3,1.8,3,1.8,5h0ZM82.9,72.3c0-1.2-.5-2.1-1.3-2.8-.9-.6-2.2-1-4-1h-3.3v8.4h3.2c1.7,0,3-.4,4-1.2.9-.8,1.4-1.9,1.4-3.4ZM84.4,85.7c0-1.4-.5-2.6-1.6-3.4-1.1-.8-2.6-1.2-4.7-1.2h-3.8v9.4h4.2c1.8,0,3.2-.4,4.2-1.3,1-.9,1.5-2,1.5-3.5Z"/>
      </g>
      <g id="X-Pressed">
        <path class="cls-4" d="M132.5,53c14.7,0,26.5,11.9,26.5,26.5s-11.9,26.5-26.5,26.5-26.5-11.9-26.5-26.5,11.9-26.5,26.5-26.5Z"/>
        <path class="cls-2" d="M139.6,94.7l-6.4-11c-.1-.2-.2-.5-.3-.8,0-.3-.1-.5-.2-.8h0c-.1.3-.2.5-.3.8,0,.3-.2.5-.3.8l-6.5,11h-6.1l10.1-15.2-9.3-15.1h6.2l5.4,10c.5.9.9,1.6,1,2.3h0c.3-.8.5-1.3.7-1.6.1-.2,2.2-3.8,6.3-10.7h5.7l-9.5,15,9.6,15.3h-6Z"/>
      </g>
      <g id="Y-Pressed">
        <path class="cls-4" d="M185.5,53c14.7,0,26.5,11.9,26.5,26.5s-11.9,26.5-26.5,26.5-26.5-11.9-26.5-26.5,11.9-26.5,26.5-26.5Z"/>
        <path class="cls-6" d="M187.9,83.7v11h-5v-10.9l-9.8-19.4h5.7l6.1,12.6c.2.4.3.8.4,1.1.1.3.2.6.3.8h0c.2-.7.4-1.3.7-1.9l6.3-12.7h5.3l-10,19.3h0Z"/>
      </g>
    </g>
  </g>
</svg>