<?xml version="1.0" encoding="UTF-8"?>
<svg xmlns="http://www.w3.org/2000/svg" version="1.1" viewBox="0 0 70.7 128">
  <defs>
    <style>
      .cls-1 {
        fill: #f0f0f0;
      }

      .cls-2 {
        fill: #edf4f4;
      }

      .cls-3 {
        fill: #e5e5e5;
      }

      .cls-4 {
        fill: #e3e3e3;
      }

      .cls-5 {
        fill: #dbdbdb;
      }

      .cls-6 {
        fill: #d6d6d6;
      }

      .cls-7 {
        fill: #ebebeb;
      }

      .cls-8 {
        fill: #e8e8e8;
      }

      .cls-9 {
        fill: #e6e6e6;
      }
    </style>
  </defs>
  <!-- Generator: Adobe Illustrator 28.6.0, SVG Export Plug-In . SVG Version: 1.2.0 Build 709)  -->
  <g>
    <g id="Layer_1">
      <g id="dpad-up">
        <path class="cls-2" d="M53,4.7c8,0,12.4,1.6,12.4,2.8v34.4l-12.4,12.7-12.4-12.7V7.4s0,0,0,0h0s0,0,0,0c0,0,0,0,0-.1h0c.2-.3.9-1.2,4.1-1.8.3,0,.6-.1.9-.2h0c.3,0,.5-.1.8-.1,0,0,.1,0,.2,0,.3,0,.6,0,.9-.1h0c.7,0,1.3-.1,2-.2h.1c.2,0,.4,0,.6,0h.4c.4,0,.8,0,1.1,0h.1c.3,0,.7,0,1,0M53,3.6c-.8,0-1.5,0-2.3,0-.3,0-.6,0-1,0h-.1c-.3,0-.7,0-1,0,0,0,0,0,0,0-.3,0-.7,0-1,.1h0c-.3,0-.7,0-1,.1-.3,0-.6,0-.9.1h0c-.3,0-.6.1-.9.2h0c-2.4.5-4.2,1.2-4.8,2.3,0,0,0,.1-.1.2h0s0,.2,0,.2h0c0,0,0,.1,0,.2,0,0,0,.1,0,.2v34.9l13.4,13.7,13.4-13.7V7.4c0-2.5-6.7-3.8-13.4-3.8Z"/>
        <path class="cls-7" d="M40.1,42.1V7.4s0,0,0-.1v-.2c0,0,.1-.1.1-.1.5-.8,2.1-1.5,4.5-2,.3,0,.6-.1.9-.2.3,0,.6-.1.9-.1,0,0,.1,0,.2,0,.3,0,.6,0,.9-.1.7,0,1.3-.1,2-.2h2.3c.3,0,.7,0,1,0,7.3,0,12.9,1.4,12.9,3.3v34.6l-12.9,13.2-12.9-13.2Z"/>
        <path class="cls-5" d="M44.6,4.4h0c.3,0,.6-.1.9-.2h0c.3,0,.7-.1,1-.2.3,0,.7,0,1-.1h0c.3,0,.7,0,1-.1,0,0,0,0,0,0,.4,0,.7,0,1.1,0,.3,0,.6,0,1,0,.4,0,.8,0,1.2,0h.1c.3,0,.7,0,1,0,6.7,0,13.4,1.2,13.4,3.8l2.7-2.8c-.9-1.4-2.7-2.7-6.1-3.6-2.7-.7-6.3-1-10.1-1s-7.4.4-10.1,1c-2.9.7-4.7,1.8-5.7,3l2.5,2.6c.6-1,2.4-1.8,4.8-2.2Z"/>
        <path class="cls-4" d="M66.4,7.4v34.9l3.6-3.7V7.4c0-.9-.2-1.9-.8-2.8l-2.7,2.8Z"/>
        <path class="cls-6" d="M39.6,7.4c0-.1,0-.2,0-.4h0s0-.2,0-.2h0c0,0,0-.1.1-.2l-2.5-2.6c-1,1.1-1.2,2.3-1.2,3.4v31.2l3.6,3.7V7.4Z"/>
      </g>
      <g id="dpad-down">
        <path class="cls-2" d="M17,1.4l12.4,12.7v34.4s0,0,0,0c-.2,1.1-4.6,2.7-12.4,2.7s-12.2-1.6-12.4-2.7c0,0,0,0,0,0V14.1L17,1.4M17,0L3.6,13.7v34.8c0,0,0,.2,0,.2.4,2.4,6.9,3.5,13.4,3.5s13-1.2,13.4-3.5c0,0,0-.2,0-.2V13.7L17,0Z"/>
        <path class="cls-7" d="M17,51.8c-7.1,0-12.6-1.3-12.9-3.1,0,0,0,0,0-.2V13.9L17,.7l12.9,13.2v34.6c0,0,0,.1,0,.2-.3,1.8-5.9,3.1-12.9,3.1Z"/>
        <path class="cls-1" d="M30.4,48.6l2.7,2.8c.5-.8.8-1.8.8-2.8v-31.2l-3.6-3.7v34.8Z"/>
        <path class="cls-8" d="M30.4,48.8c-.4,2.4-6.9,3.5-13.4,3.5s-13-1.2-13.4-3.5c0,0,0-.2,0-.2l-2.8,2.8c.9,1.4,2.7,2.7,6.1,3.6,2.7.7,6.3,1.1,10.1,1.1s7.4-.4,10.1-1.1c3.4-.8,5.2-2.2,6.1-3.6l-2.7-2.8c0,0,0,.2,0,.2Z"/>
        <path class="cls-4" d="M3.6,48.6V13.7l-3.6,3.7v32.3c.2.6.4,1.1.8,1.7,0,0,2.8-2.8,2.8-2.8Z"/>
      </g>
      <g id="dpad-right">
        <path class="cls-2" d="M48.6,61.6c1.2,0,2.8,4.7,2.8,12.4s-1.6,12.4-2.8,12.4H14.1l-12.7-12.4,12.7-12.4h34.4M48.6,60.6H13.7L0,74l13.7,13.4h34.8c5,0,5-26.8,0-26.8Z"/>
        <path class="cls-7" d="M13.9,86.9L.7,74l13.2-12.9h34.6c1.8,0,3.3,5.7,3.3,12.9s-1.4,12.9-3.3,12.9H13.9s0,0,0,0Z"/>
        <path class="cls-9" d="M48.6,60.6l2.8-2.7c-.8-.5-1.8-.8-2.8-.8h-31.2l-3.6,3.6h34.8Z"/>
        <path class="cls-8" d="M48.6,87.4H13.7l3.6,3.6h32.7l.3-.3c.3-.1.6-.3.9-.5,0,0-2.8-2.7-2.8-2.7Z"/>
        <path class="cls-1" d="M51.4,57.8l-2.8,2.7c5,0,5,26.8,0,26.8l2.8,2.7c1.4-.9,2.7-2.7,3.6-6.1.7-2.7,1-6.3,1-10.1s-.4-7.4-1-10.1c-.9-3.4-2.2-5.2-3.6-6.1Z"/>
      </g>
      <g id="dpad-left">
        <path class="cls-2" d="M41.9,97.6l12.7,12.4-12.7,12.4H7.4c-1.2,0-2.8-4.7-2.8-12.4s1.6-12.4,2.8-12.4h34.4M42.3,96.6H7.4c-5.1,0-5.1,26.8,0,26.8h34.8l13.7-13.4-13.7-13.4Z"/>
        <path class="cls-7" d="M7.4,122.9c-1.8,0-3.3-5.7-3.3-12.9s1.4-12.9,3.3-12.9h34.6l13.2,12.9-13.2,12.9s-34.6,0-34.6,0Z"/>
        <path class="cls-5" d="M42.3,96.6l-3.6-3.6H7.4c-.9,0-1.8.2-2.8.8l2.8,2.7h34.8Z"/>
        <path class="cls-6" d="M7.4,96.6l-2.8-2.8c-1.4.9-2.7,2.7-3.6,6.1-.7,2.7-1,6.3-1,10.1s.4,7.4,1,10.1c.9,3.4,2.2,5.2,3.6,6.1l2.8-2.7c-5.1,0-5.1-26.8,0-26.8Z"/>
        <path class="cls-3" d="M7.4,123.4l-2.8,2.7c1,.6,1.9.8,2.8.8h31.2l3.6-3.6H7.4Z"/>
      </g>
    </g>
  </g>
</svg>