<?xml version="1.0" encoding="UTF-8"?>
<svg xmlns="http://www.w3.org/2000/svg" version="1.1" viewBox="0 0 67.4 33.2">
  <defs>
    <style>
      .cls-1 {
        fill: #f5f5f5;
        stroke: #fff;
        stroke-miterlimit: 10;
      }

      .cls-2 {
        fill: #929493;
      }
    </style>
  </defs>
  <!-- Generator: Adobe Illustrator 28.6.0, SVG Export Plug-In . SVG Version: 1.2.0 Build 709)  -->
  <g>
    <g id="Layer_1">
      <g id="start">
        <path class="cls-1" d="M66.9,16.6c0,8.9-7.2,16.1-16.1,16.1s-16.1-7.2-16.1-16.1S41.9.5,50.8.5s16.1,7.2,16.1,16.1Z"/>
        <path class="cls-2" d="M43.6,12h14.4v1.6h-14.4v-1.6ZM43.6,15.9h14.4v1.6h-14.4v-1.6ZM43.6,19.7h14.4v1.5h-14.4v-1.5Z"/>
      </g>
      <g id="back">
        <path class="cls-1" d="M32.7,16.6c0,8.9-7.2,16.1-16.1,16.1S.5,25.5.5,16.6,7.7.5,16.6.5s16.1,7.2,16.1,16.1Z"/>
        <g>
          <path class="cls-2" d="M14.1,16.5h-3v-3.8h5.5v1.3h1.8v-3.1h-8.9v7.4h4.6v-1.9Z"/>
          <path class="cls-2" d="M14.8,14.7v7.6h9v-7.6h-9ZM22,20.4h-5.5v-3.9h5.5v3.9Z"/>
        </g>
      </g>
    </g>
  </g>
</svg>