<?xml version="1.0" encoding="UTF-8"?>
<svg xmlns="http://www.w3.org/2000/svg" version="1.1" viewBox="0 0 168.8 83.4">
  <defs>
    <style>
      .cls-1 {
        fill: #fff;
      }

      .cls-1, .cls-2 {
        isolation: isolate;
        opacity: 0;
      }

      .cls-3 {
        fill: #262626;
      }

      .cls-4 {
        fill: #e5e5e5;
      }

      .cls-5 {
        fill: #404040;
      }

      .cls-6 {
        fill: #bfbfbf;
      }

      .cls-7 {
        fill: #212121;
      }

      .cls-8 {
        fill: #1a1a1a;
      }

      .cls-9 {
        fill: #dedede;
      }

      .cls-10 {
        fill: #d9d9d9;
      }
    </style>
  </defs>
  <!-- Generator: Adobe Illustrator 28.6.0, SVG Export Plug-In . SVG Version: 1.2.0 Build 709)  -->
  <g>
    <g id="Layer_1">
      <g id="Joy-Unpressed">
        <path class="cls-8" d="M168,41.5c0,22.9-18.6,41.5-41.5,41.5s-41.5-18.6-41.5-41.5S103.6,0,126.5,0s41.5,18.6,41.5,41.5Z"/>
        <path class="cls-5" d="M126.5,0h-1s0,0,0,0h0s0,0,0,0h0s0,0,0,0h0s0,0,0,0h0s0,0,0,0h0c-.2,0-.5,0-.7,0l.9,19.9c.4,0,.7,0,1.1,0V0h0ZM122.5.2h-.2s0,0,0,0h0s0,0,0,0c0,0,0,0,0,0h0s0,0,0,0h0s0,0,0,0c-.6,0-1.1.1-1.7.2l2.8,19.7c.3,0,.7,0,1-.1L122.5.2ZM118.6.8h0s0,0,0,0h0s0,0,0,0h0s0,0,0,0h0s0,0,0,0h0s0,0,0,0h0s0,0,0,0h0s0,0,0,0h0s0,0,0,0h0s0,0,0,0h0s0,0,0,0c0,0,0,0,0,0h0s0,0,0,0h0s0,0,0,0h0s0,0,0,0h0s0,0,0,0c-.5.1-1,.2-1.4.3l4.7,19.3c.3,0,.7-.2,1-.2,0,0-3.8-19.5-3.8-19.5ZM114.7,1.7c-.3,0-.5.2-.8.2h0s0,0,0,0h0s0,0,0,0c-.3.1-.6.2-.9.3l6.6,18.8c.3-.1.7-.2,1-.3l-5.6-19.1ZM111,3c-.6.2-1.2.5-1.8.8l8.3,18.1c.3-.1.6-.3.9-.4,0,0-7.5-18.5-7.5-18.5ZM107.3,4.7c-.6.3-1.2.6-1.7,1l10,17.2c.3-.2.6-.3.9-.5l-9.2-17.7ZM103.9,6.7c-.6.4-1.1.7-1.6,1.1l11.6,16.1c.3-.2.6-.4.9-.6l-10.9-16.7ZM100.7,9c-.5.4-1,.8-1.5,1.3l13.1,15c.3-.2.5-.5.8-.7l-12.4-15.6ZM97.7,11.6c-.3.3-.6.6-.8.8h0s0,0,0,0h0s0,0,0,0h0s0,0,0,0h0s0,0,0,0h0s0,0,0,0h0s0,0,0,0c-.1.1-.3.3-.4.5l14.5,13.6c.2-.3.5-.5.7-.7l-13.8-14.3ZM95,14.5s0,0,0,0c0,0,0,0,0,0h0s0,0,0,0h0s0,0,0,0h0s0,0,0,0c0,0,0,0,0,0h0s0,0,0,0h0s0,0,0,0h0s0,0,0,0c-.4.4-.7.9-1.1,1.4h0s15.7,12.2,15.7,12.2c.2-.3.4-.5.7-.8l-15.1-12.9ZM92.5,17.7l-.2.2h0s0,0,0,0h0s0,0,0,0c-.3.5-.6.9-.9,1.4l16.8,10.6c.2-.3.4-.6.6-.9,0,0-16.3-11.4-16.3-11.4ZM90.4,21c-.2.3-.3.5-.4.8h0c-.2.3-.3.6-.5.9l17.8,9c.2-.3.3-.6.5-.9,0,0-17.3-9.8-17.3-9.8ZM88.6,24.6c0,.1-.1.3-.2.5h0s0,0,0,0h0c-.2.5-.4.9-.5,1.3l18.5,7.2c.1-.3.3-.6.4-1,0,0-18.2-8.1-18.2-8.1ZM87.1,28.3c0,.3-.2.5-.3.8h0s0,0,0,0h0s0,0,0,0h0s0,0,0,0h0s0,0,0,0h0s0,0,0,0h0s0,0,0,0h0s0,0,0,0c0,0,0,0,0,0h0s0,0,0,0h0s0,0,0,0h0s0,0,0,0h0s0,0,0,0h0s0,0,0,0h0s0,0,0,0c0,0,0,0,0,0h0s0,0,0,0h0s0,0,0,0h0s0,0,0,0h0s0,0,0,0h0c0,.2-.1.4-.2.6l19.2,5.4c0-.3.2-.7.3-1l-18.9-6.3h0ZM86.1,32.1c-.1.5-.2,1.1-.3,1.6v.4c0,0,19.5,3.5,19.5,3.5,0-.3.1-.7.2-1,0,0-19.4-4.5-19.4-4.5ZM85.4,36c0,.4-.1.9-.1,1.3h0s0,0,0,0h0s0,0,0,0h0s0,0,0,0c0,0,0,0,0,0h0c0,.2,0,.4,0,.6l19.8,1.6c0-.3,0-.7.1-1,0,0-19.7-2.6-19.7-2.6ZM85,40c0,.3,0,.6,0,1v.6c0,.1,0,.3,0,.4l19.9-.2v-.3c0-.3,0-.5,0-.8,0,0-19.9-.7-19.9-.7ZM104.9,42.8l-19.9,1.2c0,.6,0,1.1.1,1.7h0s0,0,0,0h0s0,0,0,0h0s0,0,0,0h0s0,.2,0,.2l19.8-2.1c0-.3,0-.7,0-1ZM105.2,44.9l-19.7,3.1h0s0,0,0,0h0s0,0,0,0c0,0,0,0,0,0h0c0,.6.2,1.1.3,1.6h0s0,0,0,0h0s0,0,0,0h0s0,0,0,0h0s0,.2,0,.2l19.5-4c0-.3-.1-.7-.2-1h0ZM105.6,46.9l-19.3,4.9c.2.6.3,1.3.5,1.9l19-5.9c-.1-.3-.2-.7-.3-1ZM106.2,48.9l-18.7,6.8c.2.6.5,1.2.7,1.9l18.4-7.7c-.1-.3-.3-.6-.4-1ZM107,50.8l-18,8.6v.2c.1,0,.1,0,.1,0h0s0,0,0,0h0c.2.4.4.7.6,1.1h0s0,0,0,0h0s0,0,0,0c0,0,0,0,0,0h0s0,0,0,0l.2.3,17.5-9.4c-.2-.3-.3-.6-.5-.9ZM108,52.6l-17.1,10.2.3.5h0s0,0,0,0h0s0,0,0,0c.2.4.5.8.7,1.2l16.6-11.1c-.2-.3-.4-.6-.6-.9ZM109.1,54.3l-16,11.8.2.3s0,0,0,0h0s0,0,0,0h0s0,0,0,0h0s0,0,0,0h0s0,0,0,0h0s0,0,0,0h0s0,0,0,0h0s0,0,0,0c0,0,0,0,0,0h0s0,0,0,0h0s0,0,0,0h0s0,0,0,0h0s0,0,0,0h0s0,0,0,0h0s0,0,0,0h0s0,0,0,0c.2.3.5.6.7.9l15.4-12.6c-.2-.3-.4-.5-.6-.8h0ZM110.4,55.9l-14.8,13.3c.4.5.9,1,1.4,1.4l14.2-14c-.2-.2-.5-.5-.7-.8ZM111.9,57.4l-13.5,14.7c.2.2.5.5.8.7h0s0,0,0,0h0s0,0,0,0h0s0,0,0,0h0s0,0,0,0c.2.2.4.4.7.6l12.8-15.3c-.3-.2-.5-.5-.8-.7ZM113.5,58.7l-12,15.9c.5.4,1.1.8,1.6,1.2l11.2-16.4c-.3-.2-.6-.4-.8-.6ZM115.2,59.9l-10.4,16.9h.1c0,0,0,0,0,0,0,0,0,0,0,0h0s0,0,0,0h0s0,0,0,0c.5.3,1,.6,1.5.9h0s0,0,0,0c0,0,0,0,0,0h0s9.6-17.4,9.6-17.4c-.3-.2-.6-.3-.9-.5h0ZM117,60.9l-8.8,17.9.3.2h0s0,0,0,0h0s0,0,0,0c0,0,0,0,0,0h0s0,0,0,0h0s0,0,0,0h0s0,0,0,0h0s0,0,0,0h0s0,0,0,0c.4.2.8.4,1.3.6l7.9-18.3c-.3-.1-.6-.3-.9-.4ZM118.9,61.7l-7,18.6c.6.2,1.2.5,1.9.7l6.1-19c-.3-.1-.7-.2-1-.3ZM120.9,62.4l-5.2,19.2h.2c0,0,0,0,0,0h0s0,0,0,0h0s0,0,0,0h0s0,0,0,0h0s0,0,0,0h0s0,0,0,0h0c.5.1,1,.3,1.5.4l4.2-19.5c-.3,0-.7-.2-1-.2ZM122.9,62.8l-3.3,19.6c.7.1,1.3.2,2,.3l2.4-19.8c-.3,0-.7,0-1-.1ZM124.9,63l-1.4,19.9h.4s0,0,0,0h0s0,0,0,0h0s0,0,0,0c.3,0,.6,0,1,0h0s0,0,0,0h0s0,0,0,0h.4s.5-19.9.5-19.9c-.3,0-.7,0-1,0ZM128.1,63c-.3,0-.7,0-1,0l.5,19.9c.2,0,.4,0,.6,0h0s0,0,0,0h0s0,0,0,0c.4,0,.8,0,1.2,0h0s0,0,0,0h0s0,0,0,0h0s-1.4-19.9-1.4-19.9h0ZM130.1,62.8c-.3,0-.7.1-1,.1l2.4,19.8c.6,0,1.2-.2,1.8-.3h0s0,0,0,0h0s0,0,0,0c0,0,0,0,0,0h0s0,0,0,0h0s0,0,0,0l-3.3-19.6h0ZM132.1,62.4c-.3,0-.7.2-1,.2l4.2,19.5h.2s0,0,0,0h0s0,0,0,0h0s0,0,0,0h0s0,0,0,0h0s0,0,0,0h0s0,0,0,0h0s0,0,0,0c.3,0,.5-.1.8-.2h0s0,0,0,0h0s0,0,0,0h0s0,0,0,0h0s0,0,0,0h0s0,0,0,0h0s0,0,0,0h0s0,0,0,0h0s0,0,0,0h0s0,0,0,0c0,0,0,0,0,0h0s0,0,0,0h0s0,0,0,0h.4c0-.1-5.2-19.3-5.2-19.3h0ZM134.1,61.7c-.3.1-.6.2-1,.3l6.1,18.9c.3,0,.6-.2.9-.3h0s0,0,0,0h0s0,0,0,0h0s0,0,0,0h0s0,0,0,0h0s0,0,0,0h0s0,0,0,0c.3,0,.5-.2.8-.3l-7-18.6h0ZM136,60.9c-.3.1-.6.3-.9.4l7.9,18.3c.3-.2.7-.3,1-.5h0s0,0,0,0h0s0,0,0,0h0s0,0,0,0h0s0,0,0,0h0s0,0,0,0h0c.2,0,.4-.2.6-.3l-8.8-17.9h0ZM137.8,59.9c-.3.2-.6.4-.9.5l9.6,17.4h.2c0,0,0-.1,0-.1,0,0,0,0,0,0h0s0,0,0,0h0s0,0,0,0h0s0,0,0,0h0s0,0,0,0h0s0,0,0,0c.5-.3.9-.5,1.4-.8l-10.4-16.9h0ZM139.5,58.7c-.3.2-.6.4-.8.6l11.2,16.4c.3-.2.5-.3.7-.5h0s0,0,0,0h0s0,0,0,0h0s0,0,0,0h0s0,0,0,0h0s0,0,0,0h0s0,0,0,0h0s0,0,0,0h0s0,0,0,0h0s0,0,0,0h0s0,0,0,0h0s0,0,0,0c.2-.1.4-.3.6-.4l-12-15.9h0ZM141.1,57.4c-.3.2-.5.5-.8.7l12.8,15.3h0s0,0,0,0h0s0,0,0,0h0s0,0,0,0h0s0,0,0,0h0s0,0,0,0h0s0,0,0,0h0s0,0,0,0h0s0,0,0,0h0s0,0,0,0h0s0,0,0,0h0s0,0,0,0h0s0,0,0,0h0s0,0,0,0h0s0,0,0,0h0s0,0,0,0h0s0,0,0,0h0c.3-.3.7-.6,1-.9h0s0,0,0,0h0s0,0,0,0h0s0,0,0,0h0s0,0,0,0h0s0,0,0,0h0s0,0,0,0l-13.5-14.6h0ZM142.6,55.9c-.2.3-.5.5-.7.8l14.2,14h0s0,0,0,0h0c.3-.3.6-.6.9-1h0s0,0,0,0h0s0,0,0,0h0s0,0,0,0h0s0,0,0,0h0s0,0,0,0c.1-.1.2-.2.3-.4l-14.8-13.3h0ZM143.9,54.3c-.2.3-.4.6-.6.8l15.4,12.6h0s0,0,0,0h0s0,0,0,0h0s0,0,0,0h0s0,0,0,0h0s0,0,0,0h0s0,0,0,0h0s0,0,0,0h0s0,0,0,0c.2-.3.4-.5.6-.8h0s0,0,0,0h0s0,0,0,0h0s0,0,0,0c0,0,0,0,0,0h0s0,0,0,0h0c.1-.2.2-.3.4-.5l-16-11.8h0ZM145,52.6c-.2.3-.4.6-.6.9l16.6,11v-.2c.1,0,.2,0,.2,0h0c.3-.5.6-.9.9-1.4h0s0,0,0,0c0,0,0,0,0,0l-17.1-10.2h0ZM146,50.8c-.1.3-.3.6-.5.9l17.5,9.4c.2-.4.5-.9.7-1.3h0s0,0,0,0h0s0,0,0,0h0s0,0,0,0h0s0,0,0,0l.2-.3-18-8.6ZM146.8,48.9c-.1.3-.2.6-.4,1l18.4,7.7c0-.2.2-.5.3-.7h0s0,0,0,0c0,0,0,0,0,0h0s0,0,0,0h0s0,0,0,0h0c.1-.4.3-.7.4-1.1l-18.7-6.8ZM147.4,46.9c0,.3-.2.7-.3,1l19,5.9v-.4c.1,0,.1,0,.1,0h0s0,0,0,0h0s0,0,0,0h0s0,0,0,0h0s0,0,0,0h0s0,0,0,0h0s0,0,0,0h0s0,0,0,0c0,0,0,0,0,0h0s0,0,0,0h0s0,0,0,0h0c.1-.4.2-.8.3-1.2,0,0-19.3-4.9-19.3-4.9ZM147.8,44.9c0,.3-.1.7-.2,1l19.5,4c.1-.6.3-1.3.4-2,0,0-19.7-3.1-19.7-3.1ZM148.1,42.8c0,.3,0,.7,0,1l19.8,2.1c0-.2,0-.5,0-.7h0s0,0,0,0h0s0,0,0,0h0s0,0,0,0c0-.4,0-.8,0-1.1h0c0,0-19.9-1.2-19.9-1.2h0ZM168,40l-19.9.7c0,.3,0,.5,0,.8v.3s19.9.2,19.9.2v-.4s0-.5,0-.5h0c0-.3,0-.4,0-.6h0s0,0,0,0h0c0,0,0,0,0,0h0s0,0,0,0h0c0,0,0-.2,0-.3h0ZM167.6,36l-19.7,2.6c0,.3,0,.7.1,1l19.8-1.7c0-.2,0-.3,0-.5,0,0,0,0,0,0h0s0,0,0,0h0s0,0,0,0h0s0,0,0,0h0c0-.5,0-.9-.2-1.4h0ZM166.9,32.1l-19.4,4.5c0,.3.1.7.2,1l19.6-3.5c0-.3-.1-.6-.2-.9h0s0,0,0,0h0s0,0,0,0h0s0,0,0,0h0s0,0,0,0h0s0,0,0,0h0s0,0,0,0h0s0,0,0,0h0s0,0,0,0c0,0,0,0,0,0h0s0,0,0,0h0s0,0,0,0h0s0,0,0,0h0s0-.3,0-.3h0s0,0,0,0h0s0,0,0,0c0,0,0,0,0,0h0s0-.2,0-.2h0ZM165.8,28.3l-18.9,6.3c.1.3.2.7.3,1l19.2-5.4h0s0,0,0,0c0,0,0,0,0,0h0s0,0,0,0h0c-.1-.5-.3-1-.5-1.5h0s0,0,0,0h0s0,0,0,0c0,0,0-.2-.1-.3h0ZM164.4,24.6l-18.2,8.1c.1.3.3.6.4,1l18.5-7.2c-.2-.6-.5-1.2-.8-1.8h0ZM162.6,21l-17.3,9.8c.2.3.3.6.5.9l17.8-9c-.3-.5-.5-1-.8-1.5h0s0,0,0,0h0s0,0,0,0h0s0,0,0,0h0s0,0,0,0h0s0,0,0,0h0s0,0,0,0h0s0,0,0,0h0s0,0,0,0h0ZM160.5,17.7l-16.3,11.4c.2.3.4.6.6.9l16.8-10.7v-.2c-.1,0-.1,0-.1,0h0s0,0,0,0h0c-.2-.3-.4-.7-.7-1h0s0,0,0,0h0s0,0,0,0c0-.1-.2-.3-.3-.4h0ZM158,14.5l-15.1,12.9c.2.3.4.5.7.8l15.7-12.2h-.1c0-.2,0-.2,0-.2h0s0,0,0,0h0s0,0,0,0h0s0,0,0,0h0s0,0,0,0c0,0,0,0,0,0h0s0,0,0,0h0s0,0,0,0h0s0,0,0,0h0s0,0,0,0h0s0,0,0,0h0s0,0,0,0h0s0,0,0,0c0,0,0,0,0,0h0s0,0,0,0h0s0,0,0,0h0s0,0,0,0h0s0,0,0,0h0s0,0,0,0h0s0,0,0,0h0s0,0,0,0h0s0,0,0,0h0s0,0,0,0h0s0,0,0,0h0s0,0,0,0h0s0,0,0,0h0s0,0,0,0h0s0,0,0,0h0s0,0,0,0h0s0,0,0,0h0s0,0,0,0h0s0,0,0,0c0,0,0,0,0,0h0s0,0,0,0h0s0,0,0,0h0s0,0,0,0h0s0,0,0,0c0,0,0,0,0,0h0s0,0,0,0h0s0,0,0,0h0s0,0,0,0h0s0,0,0,0h0s0,0,0,0h0s0,0,0,0h0s0,0,0,0h0s0,0,0,0h0s0,0,0,0h0s0,0,0,0h0s0,0,0,0h0s0,0,0,0h0s0,0,0,0h0s0,0,0,0h0s0,0,0,0c0,0,0-.1-.1-.1h0ZM155.3,11.6l-13.8,14.3c.2.2.5.5.7.7l14.5-13.7h0c-.5-.5-.9-1-1.4-1.4ZM152.3,9l-12.4,15.6c.3.2.5.4.8.7l13.1-15-.2-.2h0s0,0,0,0h0s0,0,0,0c-.4-.4-.8-.7-1.2-1ZM149.1,6.7l-10.8,16.7c.3.2.6.4.9.6l11.6-16.2c-.1-.1-.3-.2-.5-.3h0s0,0,0,0h0s0,0,0,0h0s0,0,0,0c-.2-.1-.3-.2-.5-.4h0s0,0,0,0h0s0,0,0,0h0s0,0,0,0c-.2-.1-.4-.2-.5-.4h0ZM145.6,4.7l-9.2,17.7c.3.2.6.3.9.5l10-17.2c-.1,0-.3-.2-.4-.2h0s0,0,0,0c-.4-.2-.8-.4-1.2-.7ZM142,3l-7.5,18.5c.3.1.6.3.9.4l8.3-18.1h0s0,0,0,0h0s0,0,0,0h0s0,0,0,0h0s0,0,0,0h0s0,0,0,0h0s0,0,0,0h0s0,0,0,0h0s0,0,0,0h0s0,0,0,0h0s0,0,0,0h0s0,0,0,0c-.5-.2-1-.4-1.5-.7h0ZM138.3,1.7l-5.6,19.1c.3,0,.7.2,1,.3l6.6-18.8c-.4-.2-.9-.3-1.3-.4h0s0,0,0,0c0,0,0,0,0,0h0s0,0,0,0h0s0,0,0,0h0s0,0,0,0h0c-.1,0-.3,0-.4-.1h0ZM134.4.8l-3.8,19.5c.3,0,.7.1,1,.2l4.7-19.3h0s0,0,0,0h0s0,0,0,0h0s0,0,0,0h0s0,0,0,0h0s0,0,0,0h0s0,0,0,0h0s0,0,0,0h0s0,0,0,0c-.3,0-.5-.1-.8-.2h0s0,0,0,0h0s0,0,0,0h0s0,0,0,0h0s0,0,0,0h0s0,0,0,0h0s0,0,0,0h0c-.2,0-.4-.1-.7-.1h0ZM130.5.2l-1.9,19.8c.3,0,.7,0,1,.1l2.8-19.7c-.2,0-.4,0-.5,0h0s0,0,0,0h0s0,0,0,0h0s0,0,0,0c0,0,0,0,0,0h0s0,0,0,0h0c-.3,0-.6,0-.9-.1h0s0,0,0,0h0s0,0,0,0h0s0,0,0,0h0c0,0-.2,0-.3,0h0ZM126.5,0v19.9c.4,0,.7,0,1.1,0L128.5,0c-.4,0-.8,0-1.2,0h-.7s0,0,0,0Z"/>
        <path class="cls-3" d="M126.5,2c21.8,0,39.5,17.7,39.5,39.5s-17.7,39.5-39.5,39.5-39.5-17.7-39.5-39.5S104.7,2,126.5,2M126.5,0c-22.9,0-41.5,18.6-41.5,41.5s18.6,41.5,41.5,41.5,41.5-18.6,41.5-41.5S149.4,0,126.5,0Z"/>
        <path class="cls-1" d="M162.3,41.5c0,19.8-16.1,35.8-35.9,35.8s-35.8-16.1-35.8-35.8S106.7,5.7,126.5,5.7s35.9,16.1,35.9,35.9Z"/>
        <path class="cls-7" d="M126.5,69.5c-15.4,0-28-12.6-28-28s12.6-28,28-28,28,12.6,28,28c0,15.4-12.6,28-28,28Z"/>
        <path class="cls-8" d="M126.5,16.5c13.8,0,25,11.2,25,25s-11.2,25-25,25-25-11.2-25-25c0-13.8,11.2-25,25-25M126.5,10.5c-17.1,0-31,13.9-31,31s13.9,31,31,31,31-13.9,31-31c0-17.1-13.9-31-31-31Z"/>
      </g>
      <g id="Joy-Pressed">
        <path class="cls-4" d="M83,41.5c0,22.9-18.6,41.5-41.5,41.5S0,64.4,0,41.5,18.6,0,41.5,0s41.5,18.6,41.5,41.5Z"/>
        <path class="cls-6" d="M41.5,0h-1s0,0,0,0h0s0,0,0,0h0s0,0,0,0h0s0,0,0,0h0s0,0,0,0h0c-.2,0-.5,0-.7,0l.9,19.9c.4,0,.7,0,1.1,0V0ZM37.5.2c0,0-.1,0-.2,0h0s0,0,0,0h0s0,0,0,0h0s0,0,0,0c-.6,0-1.1.1-1.7.2l2.8,19.7c.3,0,.7,0,1-.1L37.5.2ZM33.6.8h0s0,0,0,0h0s0,0,0,0h0s0,0,0,0h0s0,0,0,0h0s0,0,0,0h0s0,0,0,0h0s0,0,0,0h0s0,0,0,0h0s0,0,0,0h0s0,0,0,0c0,0,0,0,0,0h0s0,0,0,0h0s0,0,0,0h0s0,0,0,0h0s0,0,0,0c-.5.1-1,.2-1.4.3l4.7,19.3c.3,0,.7-.2,1-.2,0,0-3.8-19.5-3.8-19.5ZM29.7,1.7c-.3,0-.5.2-.8.2h0s0,0,0,0h0s0,0,0,0c-.3.1-.6.2-.9.3l6.6,18.8c.3-.1.7-.2,1-.3,0,0-5.6-19.1-5.6-19.1ZM26,3c-.6.2-1.2.5-1.8.8l8.3,18.1c.3-.1.6-.3.9-.4,0,0-7.5-18.5-7.5-18.5ZM22.3,4.7c-.6.3-1.2.6-1.7,1l10,17.2c.3-.2.6-.3.9-.5,0,0-9.2-17.7-9.2-17.7ZM18.9,6.7c-.6.4-1.1.7-1.6,1.1l11.6,16.1c.3-.2.6-.4.9-.6,0,0-10.9-16.7-10.9-16.7ZM15.7,9c-.5.4-1,.8-1.5,1.3l13.1,15c.3-.2.5-.5.8-.7,0,0-12.4-15.6-12.4-15.6ZM12.7,11.6c-.3.3-.6.6-.8.8h0s0,0,0,0h0s0,0,0,0h0s0,0,0,0h0s0,0,0,0h0s0,0,0,0h0s0,0,0,0c-.1.1-.3.3-.4.5l14.5,13.6c.2-.3.5-.5.7-.7,0,0-13.8-14.3-13.8-14.3ZM10,14.5h0s0,0,0,0h0s0,0,0,0h0s0,0,0,0h0s0,0,0,0h0s0,0,0,0h0s0,0,0,0h0s0,0,0,0h0c-.4.4-.7.9-1.1,1.4h0s15.7,12.2,15.7,12.2c.2-.3.4-.5.7-.8,0,0-15.1-12.9-15.1-12.9ZM7.5,17.7l-.2.2h0s0,0,0,0h0s0,0,0,0c-.3.5-.6.9-.9,1.4l16.8,10.6c.2-.3.4-.6.6-.9,0,0-16.3-11.4-16.3-11.4ZM5.4,21c-.2.3-.3.5-.4.8h0c-.2.3-.3.6-.5.9l17.8,9c.2-.3.3-.6.5-.9,0,0-17.3-9.8-17.3-9.8ZM3.6,24.6c0,.1-.1.3-.2.5h0s0,0,0,0h0c-.2.5-.4.9-.5,1.3l18.5,7.2c.1-.3.3-.6.4-1,0,0-18.2-8.1-18.2-8.1ZM2.1,28.3c0,.3-.2.5-.3.8h0s0,0,0,0h0s0,0,0,0h0s0,0,0,0h0s0,0,0,0h0s0,0,0,0h0s0,0,0,0h0s0,0,0,0c0,0,0,0,0,0h0s0,0,0,0h0s0,0,0,0h0s0,0,0,0h0s0,0,0,0h0s0,0,0,0h0s0,0,0,0c0,0,0,0,0,0h0s0,0,0,0h0s0,0,0,0h0s0,0,0,0h0s0,0,0,0h0c0,.2-.1.4-.2.6l19.2,5.4c0-.3.2-.7.3-1,0,0-18.9-6.3-18.9-6.3ZM1.1,32.1c-.1.5-.2,1.1-.3,1.6v.4c0,0,19.5,3.5,19.5,3.5,0-.3.1-.7.2-1,0,0-19.4-4.5-19.4-4.5ZM.4,36c0,.4-.1.9-.1,1.3H.2s0,0,0,0h0s0,0,0,0h0s0,0,0,0h0c0,.2,0,.4,0,.6l19.8,1.6c0-.3,0-.7.1-1,0,0-19.7-2.6-19.7-2.6ZM0,40c0,.3,0,.6,0,1v.6c0,.1,0,.3,0,.4l19.9-.2v-.3c0-.3,0-.5,0-.8,0,0-19.9-.7-19.9-.7ZM19.9,42.8L0,44c0,.6,0,1.1.1,1.7H.2s0,0,0,0h0s0,0,0,0h0s0,0,0,0H.2s0,.2,0,.2l19.8-2.1c0-.3,0-.7,0-1ZM20.2,44.9L.5,48h0s0,0,0,0h0s0,0,0,0c0,0,0,0,0,0h0c0,.6.2,1.1.3,1.6h0s0,0,0,0h0s0,0,0,0h0s0,0,0,0h0s0,.2,0,.2l19.5-4c0-.3-.1-.7-.2-1ZM20.6,46.9L1.3,51.9c.2.6.3,1.3.5,1.9l19-5.9c-.1-.3-.2-.7-.3-1ZM21.2,48.9l-18.7,6.8c.2.6.5,1.2.7,1.9l18.4-7.7c-.1-.3-.3-.6-.4-1ZM22,50.8l-18,8.6v.2c.1,0,.1,0,.1,0h0s0,0,0,0h0c.2.4.4.7.6,1.1h0s0,0,0,0h0s0,0,0,0h0s0,0,0,0l.2.3,17.5-9.4c-.2-.3-.3-.6-.5-.9ZM23,52.6l-17.1,10.2c0,.2.2.3.3.5h0s0,0,0,0h0s0,0,0,0h0c.2.4.5.8.7,1.2l16.6-11.1c-.2-.3-.4-.6-.6-.9ZM24.1,54.3l-16,11.8.2.3h0s0,0,0,0h0s0,0,0,0c0,0,0,0,0,0h0s0,0,0,0h0s0,0,0,0h0s0,0,0,0h0s0,0,0,0h0s0,0,0,0c0,0,0,0,0,0h0s0,0,0,0h0s0,0,0,0h0s0,0,0,0h0s0,0,0,0h0s0,0,0,0h0s0,0,0,0h0s0,0,0,0c.2.3.5.6.7.9l15.4-12.6c-.2-.3-.4-.5-.6-.8h0ZM25.4,55.9l-14.8,13.3c.4.5.9,1,1.4,1.4l14.2-14c-.2-.2-.5-.5-.7-.8ZM26.9,57.4l-13.5,14.7c.2.2.5.5.8.7h0s0,0,0,0h0s0,0,0,0h0s0,0,0,0h0s0,0,0,0c.2.2.4.4.7.6l12.8-15.3c-.3-.2-.5-.5-.8-.7ZM28.5,58.7l-12,15.9c.5.4,1.1.8,1.6,1.2l11.2-16.4c-.3-.2-.6-.4-.8-.6ZM30.2,59.9l-10.4,16.9h.1c0,0,0,0,0,0,0,0,0,0,0,0h0s0,0,0,0h0s0,0,0,0c.5.3,1,.6,1.5.9h0s0,0,0,0c0,0,0,0,0,0h0s9.6-17.4,9.6-17.4c-.3-.2-.6-.3-.9-.5ZM32,60.9l-8.8,17.9.3.2h0s0,0,0,0h0s0,0,0,0c0,0,0,0,0,0h0s0,0,0,0h0s0,0,0,0h0s0,0,0,0h0s0,0,0,0h0s0,0,0,0c.4.2.8.4,1.3.6l7.9-18.3c-.3-.1-.6-.3-.9-.4ZM33.9,61.7l-7,18.6c.6.2,1.2.5,1.9.7l6.1-19c-.3-.1-.7-.2-1-.3ZM35.9,62.4l-5.2,19.2h.2c0,0,0,0,0,0h0s0,0,0,0h0s0,0,0,0h0s0,0,0,0h0s0,0,0,0h0s0,0,0,0c.5.1,1,.3,1.5.4l4.2-19.5c-.3,0-.7-.2-1-.2ZM37.9,62.8l-3.3,19.6c.7.1,1.3.2,2,.3l2.4-19.8c-.3,0-.7,0-1-.1ZM39.9,63l-1.4,19.9h.4s0,0,0,0h0s0,0,0,0h0s0,0,0,0c.3,0,.6,0,1,0h0s0,0,0,0h0s0,0,0,0h.4s.5-19.9.5-19.9c-.3,0-.7,0-1,0ZM43.1,63c-.3,0-.7,0-1,0l.5,19.9c.2,0,.4,0,.6,0h0s0,0,0,0h0s0,0,0,0c.4,0,.8,0,1.2,0h0s0,0,0,0h0s0,0,0,0h0s-1.4-19.9-1.4-19.9ZM45.1,62.8c-.3,0-.7.1-1,.1l2.4,19.8c.6,0,1.2-.2,1.8-.3h0s0,0,0,0h0s0,0,0,0c0,0,0,0,0,0h0s0,0,0,0h0s0,0,0,0l-3.3-19.6h0ZM47.1,62.4c-.3,0-.7.2-1,.2l4.2,19.5h.2s0,0,0,0h0s0,0,0,0h0s0,0,0,0h0s0,0,0,0h0s0,0,0,0h0s0,0,0,0h0s0,0,0,0c.3,0,.5-.1.8-.2h0s0,0,0,0h0s0,0,0,0h0s0,0,0,0h0s0,0,0,0h0s0,0,0,0h0s0,0,0,0h0s0,0,0,0h0s0,0,0,0h0s0,0,0,0c0,0,0,0,0,0h0s0,0,0,0h0s0,0,0,0h.4c0-.1-5.2-19.3-5.2-19.3h0ZM49.1,61.7c-.3.1-.6.2-1,.3l6.1,18.9c.3,0,.6-.2.9-.3h0s0,0,0,0h0s0,0,0,0h0s0,0,0,0h0s0,0,0,0h0s0,0,0,0h0s0,0,0,0c.3,0,.5-.2.8-.3l-7-18.6h0ZM51,60.9c-.3.2-.6.3-.9.4l7.9,18.3c.3-.2.7-.3,1-.5h0s0,0,0,0h0s0,0,0,0h0s0,0,0,0h0s0,0,0,0h0s0,0,0,0h0c.2,0,.4-.2.6-.3,0,0-8.8-17.9-8.8-17.9ZM52.8,59.9c-.3.2-.6.4-.9.5l9.6,17.4h.2c0,0,0-.1,0-.1h0s0,0,0,0h0s0,0,0,0h0s0,0,0,0h0s0,0,0,0h0s0,0,0,0h0c.5-.3.9-.5,1.4-.8,0,0-10.5-16.9-10.5-16.9ZM54.5,58.7c-.3.2-.6.4-.8.6l11.2,16.4c.3-.2.5-.3.8-.5h0s0,0,0,0h0s0,0,0,0h0s0,0,0,0h0s0,0,0,0h0s0,0,0,0h0s0,0,0,0h0s0,0,0,0h0s0,0,0,0h0s0,0,0,0h0s0,0,0,0h0s0,0,0,0c.2-.1.4-.3.6-.4,0,0-12-15.9-12-15.9ZM56.1,57.4c-.3.2-.5.5-.8.7l12.8,15.3h0s0,0,0,0h0s0,0,0,0h0s0,0,0,0h0s0,0,0,0h0s0,0,0,0h0s0,0,0,0h0s0,0,0,0h0s0,0,0,0h0s0,0,0,0h0s0,0,0,0h0s0,0,0,0h0s0,0,0,0h0s0,0,0,0h0s0,0,0,0h0s0,0,0,0h0s0,0,0,0h0c.3-.3.7-.6,1-.9h0s0,0,0,0h0s0,0,0,0h0s0,0,0,0c0,0,0,0,0,0h0s0,0,0,0h0s0,0,0,0h0s-13.5-14.6-13.5-14.6ZM57.6,55.9c-.2.3-.5.5-.7.8l14.2,14h0s0,0,0,0h0c.3-.3.6-.6.9-1h0s0,0,0,0h0s0,0,0,0h0s0,0,0,0h0s0,0,0,0h0s0,0,0,0c.1-.1.2-.2.3-.4l-14.8-13.3h0ZM58.9,54.3c-.2.3-.4.6-.6.8l15.4,12.6h0s0,0,0,0h0s0,0,0,0h0s0,0,0,0h0s0,0,0,0h0s0,0,0,0h0s0,0,0,0h0s0,0,0,0c0,0,0,0,0,0h0c.2-.3.4-.5.6-.8h0s0,0,0,0h0s0,0,0,0h0s0,0,0,0h0s0,0,0,0c0,0,0,0,0,0h0c.1-.2.2-.3.4-.5,0,0-16-11.8-16-11.8ZM60,52.6c-.2.3-.4.6-.6.9l16.6,11v-.2c.1,0,.2,0,.2,0h0c.3-.5.6-.9.9-1.4h0s0,0,0,0c0,0,0,0,0,0l-17.1-10.2h0ZM61,50.8c-.1.3-.3.6-.5.9l17.5,9.4c.2-.4.5-.9.7-1.3h0s0,0,0,0h0s0,0,0,0c0,0,0,0,0,0h0s0,0,0,0h0s.2-.3.2-.3c0,0-18-8.6-18-8.6ZM61.8,48.9c-.1.3-.2.6-.4,1l18.4,7.7c0-.2.2-.5.3-.7h0s0,0,0,0c0,0,0,0,0,0h0s0,0,0,0h0s0,0,0,0h0c.1-.4.3-.7.4-1.1,0,0-18.7-6.8-18.7-6.8ZM62.4,46.9c0,.3-.2.7-.3,1l19,5.9v-.4c.1,0,.1,0,.1,0h0s0,0,0,0h0s0,0,0,0h0s0,0,0,0h0s0,0,0,0h0s0,0,0,0h0s0,0,0,0h0s0,0,0,0c0,0,0,0,0,0h0s0,0,0,0h0s0,0,0,0h0c.1-.4.2-.8.3-1.2l-19.3-4.9h0ZM62.8,44.9c0,.3-.1.7-.2,1l19.5,4c.1-.6.3-1.3.4-2,0,0-19.7-3.1-19.7-3.1ZM63.1,42.8c0,.3,0,.7,0,1l19.8,2.1c0-.2,0-.5,0-.7h0s0,0,0,0h0s0,0,0,0h0s0,0,0,0c0-.4,0-.8,0-1.1h0c0,0-19.9-1.2-19.9-1.2ZM83,40l-19.9.7c0,.3,0,.5,0,.8v.3l19.9.2v-.4s0-.5,0-.5h0c0-.3,0-.4,0-.6h0s0,0,0,0h0c0,0,0,0,0,0h0s0,0,0,0h0c0,0,0-.2,0-.3ZM82.6,36l-19.7,2.6c0,.3,0,.7.1,1l19.8-1.7c0-.2,0-.3,0-.5,0,0,0,0,0,0h0s0,0,0,0h0s0,0,0,0h0s0,0,0,0h0c0-.5,0-.9-.2-1.4ZM81.9,32.1l-19.4,4.5c0,.3.1.7.2,1l19.6-3.5c0-.3-.1-.6-.2-.9h0s0,0,0,0h0s0,0,0,0h0s0,0,0,0h0s0,0,0,0h0s0,0,0,0h0s0,0,0,0h0s0,0,0,0h0s0,0,0,0h0s0,0,0,0h0s0,0,0,0h0s0,0,0,0h0s0-.3,0-.3h0s0,0,0,0c0,0,0,0,0,0h0s0,0,0,0h0s0-.2,0-.2h0ZM80.8,28.3l-18.9,6.3c.1.3.2.7.3,1l19.2-5.4h0s0,0,0,0c0,0,0,0,0,0h0s0,0,0,0h0s0,0,0,0c-.1-.5-.3-1-.4-1.5h0s0,0,0,0h0s0,0,0,0c0,0,0-.2,0-.3h0ZM79.4,24.6l-18.2,8.1c.1.3.3.6.4,1l18.5-7.2c-.2-.6-.5-1.2-.8-1.8ZM77.6,21l-17.3,9.8c.2.3.3.6.5.9l17.8-9c-.3-.5-.5-1-.8-1.5h0s0,0,0,0h0s0,0,0,0h0s0,0,0,0h0s0,0,0,0h0s0,0,0,0h0s0,0,0,0h0s0,0,0,0h0s0,0,0,0ZM75.5,17.7l-16.3,11.4c.2.3.4.6.6.9l16.8-10.7v-.2c-.1,0-.1,0-.1,0h0s0,0,0,0h0c-.2-.3-.4-.7-.7-1h0s0,0,0,0h0s0,0,0,0c0-.1-.2-.3-.3-.4ZM73,14.5l-15.1,12.9c.2.3.4.5.7.8l15.7-12.2h-.1c0-.2,0-.2,0-.2h0s0,0,0,0h0s0,0,0,0h0s0,0,0,0h0s0,0,0,0c0,0,0,0,0,0h0s0,0,0,0h0s0,0,0,0h0s0,0,0,0h0s0,0,0,0h0s0,0,0,0h0s0,0,0,0h0s0,0,0,0c0,0,0,0,0,0h0s0,0,0,0h0s0,0,0,0c0,0,0,0,0,0h0s0,0,0,0c0,0,0,0,0,0h0s0,0,0,0h0s0,0,0,0h0s0,0,0,0h0s0,0,0,0h0s0,0,0,0h0s0,0,0,0h0s0,0,0,0h0s0,0,0,0h0s0,0,0,0h0s0,0,0,0h0s0,0,0,0h0s0,0,0,0h0s0,0,0,0h0s0,0,0,0c0,0,0,0,0,0h0s0,0,0,0h0s0,0,0,0h0s0,0,0,0h0s0,0,0,0c0,0,0,0,0,0h0s0,0,0,0h0s0,0,0,0h0s0,0,0,0h0s0,0,0,0h0s0,0,0,0h0s0,0,0,0h0s0,0,0,0h0s0,0,0,0h0s0,0,0,0h0s0,0,0,0h0s0,0,0,0h0s0,0,0,0h0s0,0,0,0h0s0,0,0,0h0s0,0,0,0c0,0,0,0-.1-.1h0ZM70.3,11.6l-13.8,14.3c.2.2.5.5.7.7l14.5-13.7h0c-.5-.5-.9-1-1.4-1.4ZM67.3,9l-12.4,15.6c.3.2.5.4.8.7l13.1-15-.2-.2h0s0,0,0,0h0s0,0,0,0c-.4-.4-.8-.7-1.2-1ZM64.1,6.7l-10.8,16.7c.3.2.6.4.9.6l11.6-16.2c-.2-.1-.3-.2-.5-.3h0s0,0,0,0h0s0,0,0,0h0s0,0,0,0c-.2-.1-.3-.2-.5-.4h0s0,0,0,0h0s0,0,0,0h0c-.2-.1-.4-.2-.5-.4ZM60.6,4.7l-9.2,17.7c.3.2.6.3.9.5l10-17.2c-.1,0-.3-.2-.4-.2h0s0,0,0,0c-.4-.2-.8-.4-1.2-.7ZM57,3l-7.5,18.5c.3.1.6.3.9.4L58.9,3.8h0s0,0,0,0h0s0,0,0,0h0s0,0,0,0h0s0,0,0,0h0s0,0,0,0h0s0,0,0,0h0s0,0,0,0h0s0,0,0,0h0s0,0,0,0h0s0,0,0,0h0s0,0,0,0c-.5-.2-1-.4-1.5-.6ZM53.3,1.7l-5.6,19.1c.3,0,.7.2,1,.3l6.6-18.8c-.4-.2-.9-.3-1.3-.4h0s0,0,0,0c0,0,0,0,0,0h0s0,0,0,0c0,0,0,0,0,0h0s0,0,0,0h0s0,0,0,0c-.1,0-.3,0-.4-.1ZM49.4.8l-3.8,19.5c.3,0,.7.1,1,.2L51.3,1.2h0s0,0,0,0h0s0,0,0,0h0s0,0,0,0h0s0,0,0,0h0s0,0,0,0h0s0,0,0,0h0s0,0,0,0h0s0,0,0,0c-.3,0-.5-.1-.8-.2h0s0,0,0,0h0s0,0,0,0h0s0,0,0,0h0s0,0,0,0h0s0,0,0,0h0s0,0,0,0h0c-.2,0-.4,0-.7-.1ZM45.5.2l-1.9,19.8c.3,0,.7,0,1,.1L47.4.4c-.2,0-.3,0-.5,0h0s0,0,0,0h0s0,0,0,0h0s0,0,0,0h0s0,0,0,0h0s0,0,0,0c-.3,0-.6,0-.9-.1h0s0,0,0,0h0s0,0,0,0h0s0,0,0,0h0c0,0-.2,0-.3,0ZM41.5,0v19.9c.4,0,.7,0,1.1,0L43.5,0c-.4,0-.8,0-1.2,0h-.7s0,0,0,0Z"/>
        <path class="cls-10" d="M41.5,2c21.8,0,39.5,17.7,39.5,39.5s-17.7,39.5-39.5,39.5S2,63.3,2,41.5,19.7,2,41.5,2M41.5,0c-22.9,0-41.5,18.6-41.5,41.5s18.6,41.5,41.5,41.5,41.5-18.6,41.5-41.5S64.4,0,41.5,0Z"/>
        <path class="cls-2" d="M77.3,41.5c0,19.8-16.1,35.8-35.9,35.8S5.7,61.3,5.7,41.5,21.7,5.7,41.5,5.7s35.9,16.1,35.9,35.9Z"/>
        <path class="cls-9" d="M41.5,69.5c-15.4,0-28-12.6-28-28s12.6-28,28-28,28,12.6,28,28c0,15.4-12.6,28-28,28Z"/>
        <path class="cls-4" d="M41.5,16.5c13.8,0,25,11.2,25,25s-11.2,25-25,25-25-11.2-25-25,11.2-25,25-25M41.5,10.5c-17.1,0-31,13.9-31,31s13.9,31,31,31,31-13.9,31-31c0-17.1-13.9-31-31-31Z"/>
      </g>
    </g>
  </g>
</svg>